<?xml version="1.0" standalone="no"?>
<!DOCTYPE svg PUBLIC "-//W3C//DTD SVG 20010904//EN"
 "http://www.w3.org/TR/2001/REC-SVG-20010904/DTD/svg10.dtd">
<svg version="1.0" xmlns="http://www.w3.org/2000/svg"
 width="725.000000pt" height="1470.000000pt" viewBox="0 0 725.000000 1470.000000"
 preserveAspectRatio="xMidYMid meet">

<g transform="translate(0.000000,1470.000000) scale(0.100000,-0.100000)"
fill="#000000" stroke="none">
<path d="M3622 14672 c-12 -2 -27 -12 -32 -23 -6 -11 -21 -19 -35 -19 -15 0
-25 -6 -25 -15 0 -8 -21 -24 -47 -36 -38 -17 -68 -22 -143 -24 -56 -1 -106 -7
-122 -15 -23 -11 -34 -11 -70 3 -40 14 -48 14 -113 -2 -64 -17 -71 -21 -86
-56 -9 -21 -23 -41 -30 -46 -10 -6 -10 -9 -2 -9 18 0 4 -28 -18 -35 -10 -4
-19 -13 -19 -21 0 -8 -5 -14 -10 -14 -6 0 -9 6 -8 13 6 26 -21 10 -54 -33 -27
-35 -40 -44 -59 -42 -30 4 -58 -22 -38 -34 7 -4 15 -2 17 4 2 7 13 12 24 12
20 0 20 -1 5 -18 -13 -14 -14 -21 -5 -30 6 -6 9 -14 6 -18 -9 -8 -78 15 -78
27 0 19 -40 -12 -46 -36 -5 -20 -10 -23 -35 -18 -26 5 -29 3 -29 -21 0 -19 -5
-26 -18 -26 -23 0 -56 -35 -47 -49 3 -6 2 -11 -2 -11 -5 0 -18 -7 -29 -16 -18
-14 -18 -15 6 -9 l25 6 -24 -20 c-13 -12 -32 -21 -42 -21 -17 0 -24 -11 -20
-32 0 -4 -19 -5 -44 -1 -44 6 -45 5 -51 -26 -4 -18 -13 -31 -21 -31 -10 0 -13
-6 -9 -16 3 -9 -1 -25 -9 -37 -8 -12 -15 -42 -15 -67 0 -43 -2 -47 -35 -63
-46 -22 -61 -55 -46 -98 9 -26 7 -45 -9 -103 -12 -39 -27 -82 -34 -96 -17 -31
-15 -182 3 -225 23 -54 49 -264 42 -340 -4 -44 10 -207 28 -325 10 -69 17
-128 14 -132 -2 -4 -21 1 -41 12 -52 28 -79 25 -117 -13 -46 -46 -58 -100 -52
-232 8 -189 56 -319 175 -477 143 -191 192 -231 258 -210 43 13 74 1 74 -28 0
-10 5 -22 10 -25 6 -3 10 -24 10 -46 0 -22 4 -59 9 -82 5 -23 14 -73 21 -112
24 -145 44 -186 140 -292 53 -58 134 -133 201 -183 61 -47 132 -102 156 -122
24 -21 49 -38 54 -38 5 0 28 -17 52 -38 53 -48 126 -100 197 -140 30 -17 76
-51 103 -76 26 -25 52 -46 58 -46 5 0 7 -5 4 -10 -4 -6 7 -13 24 -16 17 -4 36
-13 42 -20 6 -8 16 -14 22 -14 5 0 25 -11 43 -25 18 -14 39 -25 46 -25 7 0 28
-9 46 -20 18 -11 39 -20 46 -20 8 0 16 -6 19 -13 3 -7 25 -19 48 -26 55 -16
124 -58 209 -127 55 -44 90 -83 167 -183 2 -3 13 5 26 16 27 26 101 63 123 63
12 0 15 -6 12 -24 -4 -22 -3 -23 19 -13 14 6 23 19 23 34 0 12 8 28 19 34 11
8 16 19 13 31 -2 10 4 28 14 39 10 11 19 37 20 57 5 88 27 238 36 243 6 4 5
14 -3 27 -11 18 -11 24 3 39 23 26 32 69 20 101 -6 15 -13 36 -16 46 -16 49
-36 -23 -61 -222 -8 -62 -22 -130 -32 -150 -25 -54 -115 -139 -152 -144 -65
-10 -97 82 -60 174 12 31 18 64 15 80 -3 16 -2 28 3 28 5 0 5 16 1 35 -5 24
-4 39 4 48 7 7 11 18 9 24 -3 7 3 28 13 48 14 30 21 35 39 31 13 -3 27 0 34 8
6 7 25 16 42 20 16 3 45 17 63 31 18 14 38 25 44 25 6 0 16 9 23 21 6 13 17
19 28 16 14 -3 20 6 28 45 5 27 6 51 2 54 -16 10 -60 -8 -55 -22 6 -16 -3 -44
-14 -44 -9 0 -21 35 -23 70 -2 19 -10 27 -42 35 -23 7 -42 19 -46 31 -3 10 -9
29 -14 42 -4 12 -14 22 -22 22 -7 0 -22 19 -32 42 l-18 43 37 16 c21 9 40 22
44 27 3 6 23 9 44 7 20 -3 28 -2 17 1 -46 12 -46 12 -26 50 19 35 19 64 0 64
-5 0 -9 6 -9 14 0 8 -7 22 -16 31 -14 14 -15 20 -4 39 9 19 9 27 -1 44 -8 12
-20 23 -29 24 -20 5 94 66 148 80 32 8 46 8 55 -1 6 -6 23 -11 37 -11 49 0 63
-29 65 -135 1 -52 4 -98 8 -102 4 -3 7 1 7 10 0 9 8 22 18 29 45 34 115 151
107 179 -3 9 3 45 14 80 11 35 25 90 31 122 6 31 16 57 21 57 6 0 9 10 7 23
-2 16 3 23 19 25 17 3 20 -1 16 -17 -4 -15 -1 -21 12 -21 14 0 15 6 9 33 -9
39 -8 47 1 70 5 13 2 17 -12 17 -29 0 -53 66 -43 118 4 23 4 45 -1 47 -11 7
-39 65 -39 81 0 8 -15 21 -32 30 -18 9 -37 23 -41 30 -4 8 -24 21 -44 29 -34
14 -152 117 -162 140 -2 5 -15 18 -28 28 -35 28 -29 40 15 33 55 -10 196 -68
207 -86 12 -19 45 -10 62 18 10 15 23 33 30 40 12 12 12 50 -1 146 -1 11 -13
23 -27 28 -29 11 -69 47 -69 63 0 6 13 23 28 38 30 29 65 34 107 15 22 -10 27
-9 39 8 13 17 11 20 -27 39 -23 11 -63 36 -88 55 -26 19 -55 40 -65 47 -18 11
-18 12 -1 12 27 1 68 -23 106 -63 24 -25 44 -36 63 -36 26 0 28 2 17 22 -6 12
-31 43 -55 68 -24 26 -44 52 -44 59 0 10 -13 15 -32 12 -17 -2 56 101 80 114
19 10 22 14 10 15 -9 0 -20 9 -23 20 -3 11 -11 20 -16 20 -5 0 -9 9 -9 20 0
23 -31 42 -50 30 -8 -5 -22 -4 -33 1 -25 14 -168 17 -191 4 -14 -7 -20 -7 -23
3 -3 6 -17 12 -32 12 -32 0 -71 33 -71 60 0 10 -6 21 -12 23 -10 4 -10 8 1 15
17 12 -1 24 -23 16 -9 -3 -16 -1 -16 5 0 6 7 11 16 11 13 0 14 3 5 13 -7 9 -7
17 0 24 14 14 -15 36 -51 37 -39 1 -39 15 0 23 30 6 38 17 20 28 -13 8 -1 35
17 35 8 0 11 5 8 10 -3 6 0 10 7 10 9 0 9 3 -2 10 -11 7 -19 5 -32 -10 -17
-21 -38 -27 -38 -10 0 6 7 10 15 10 14 0 19 12 16 33 0 4 6 7 15 7 13 0 13 2
-2 17 -13 14 -14 18 -3 22 15 4 29 21 29 34 0 5 -9 5 -21 2 -24 -8 -56 25 -36
37 7 4 14 38 17 77 5 64 4 68 -12 60 -14 -8 -18 -6 -18 10 0 11 5 23 10 26 16
10 12 21 -12 33 l-23 11 25 0 24 1 -24 17 c-25 18 -38 22 -75 25 -27 2 -55 27
-49 43 3 7 -3 15 -13 18 -15 4 -15 5 3 6 29 1 40 31 15 38 -27 7 -15 35 14 31
12 -1 30 5 39 15 10 9 24 17 31 17 20 0 65 22 65 32 0 4 -7 8 -15 8 -31 0 -13
19 24 25 45 7 95 -16 190 -90 98 -75 274 -282 286 -335 3 -16 13 -34 21 -41 8
-6 14 -20 14 -30 0 -10 4 -20 9 -24 6 -3 13 -37 17 -75 5 -50 11 -70 21 -70
10 0 11 -5 4 -19 -6 -10 -8 -21 -5 -24 3 -3 6 -19 6 -36 1 -19 6 -31 15 -31 9
0 12 -7 7 -24 -3 -14 1 -37 9 -53 22 -42 37 -95 31 -105 -3 -5 -1 -37 5 -71 6
-34 12 -99 14 -144 3 -93 19 -125 37 -77 8 19 9 56 5 104 -4 41 -9 102 -11
135 -5 91 -14 196 -20 230 -2 17 -6 48 -8 70 -2 22 -11 60 -19 85 -9 25 -21
71 -27 102 -7 35 -22 71 -40 93 l-29 37 2 136 c2 143 -14 223 -50 253 -8 7
-26 37 -39 66 -12 29 -27 53 -32 53 -9 0 -35 54 -48 100 -11 38 -66 116 -95
134 -15 9 -30 26 -33 38 -8 32 -54 62 -89 60 -23 -2 -28 1 -23 13 4 12 -2 15
-29 15 -21 0 -35 5 -35 13 -1 20 -43 64 -70 72 -14 4 -36 16 -49 26 -13 11
-29 19 -36 19 -7 0 -18 7 -25 15 -7 8 -21 15 -31 15 -9 0 -24 7 -33 15 -8 8
-23 15 -34 15 -10 0 -28 11 -41 24 -12 12 -41 29 -64 35 -23 7 -51 21 -62 31
-11 10 -31 21 -45 23 -14 3 -38 10 -53 16 -16 6 -33 9 -38 6 -5 -3 -18 -1 -30
5 -58 31 -159 44 -247 32z m-637 -172 c3 -5 -1 -10 -10 -10 -9 0 -13 5 -10 10
3 6 8 10 10 10 2 0 7 -4 10 -10z m121 -29 c-5 -8 -56 -3 -56 5 0 2 14 4 31 4
16 0 28 -4 25 -9z m-96 -21 c12 -8 9 -10 -12 -10 -16 0 -28 5 -28 10 0 13 20
13 40 0z m-630 -505 c0 -10 -10 -15 -26 -15 -22 0 -25 2 -14 15 7 8 19 15 26
15 8 0 14 -7 14 -15z m1833 -302 c-7 -2 -19 -2 -25 0 -7 3 -2 5 12 5 14 0 19
-2 13 -5z m117 -117 c0 -3 -4 -8 -10 -11 -5 -3 -10 -1 -10 4 0 6 5 11 10 11 6
0 10 -2 10 -4z m-16 -132 c8 -22 8 -24 -8 -24 -18 0 -29 16 -21 30 9 15 22 12
29 -6z m50 -179 c4 -13 2 -14 -14 -5 -23 13 -26 20 -6 20 8 0 16 -7 20 -15z
m-54 1 c0 -11 -19 -15 -25 -6 -3 5 1 10 9 10 9 0 16 -2 16 -4z m18 -41 c-3
-13 0 -26 5 -28 6 -2 7 -9 3 -15 -10 -16 -25 -6 -37 25 -11 28 -5 43 18 43 11
0 14 -7 11 -25z m112 -122 c-1 -13 -27 -43 -32 -37 -10 10 4 44 18 44 8 0 14
-3 14 -7z m-114 -437 c3 -14 -2 -40 -15 -66 -42 -87 -34 -186 20 -246 11 -11
19 -23 19 -26 0 -3 36 -41 79 -86 l80 -80 -6 -54 c-5 -51 -4 -54 27 -72 58
-33 84 -100 59 -149 -18 -33 -32 -38 -44 -14 -17 36 -58 33 -125 -9 -33 -20
-57 -41 -54 -45 3 -5 40 -9 82 -9 l77 0 60 -59 c110 -107 133 -141 136 -199 2
-38 -2 -57 -14 -69 -15 -15 -19 -15 -51 2 -28 15 -38 17 -48 7 -18 -18 -38
-14 -38 8 0 28 -26 25 -46 -5 -17 -26 -44 -34 -44 -12 0 6 -9 27 -20 44 -18
30 -22 32 -45 21 -21 -9 -28 -8 -45 7 -26 23 -26 52 0 60 42 13 31 89 -22 164
-15 22 -20 23 -43 13 -39 -18 -43 -14 -12 11 39 31 44 108 10 151 -17 21 -20
33 -13 46 16 30 12 58 -29 190 -21 69 -47 152 -57 185 -25 81 -24 119 2 188
23 58 78 127 101 127 7 0 15 -11 19 -24z m-687 -118 c34 -37 36 -41 21 -69 -8
-13 -21 -19 -46 -19 -32 0 -35 2 -27 23 4 12 7 39 6 60 -3 45 7 47 46 5z
m1155 -11 c27 -19 16 -50 -19 -58 -17 -4 -39 -10 -49 -14 -17 -7 -18 -5 -12
21 8 33 33 64 51 64 6 0 19 -6 29 -13z m-326 -1149 c33 -33 -5 -82 -53 -69
-24 6 -29 13 -27 32 4 41 53 64 80 37z m52 -5 c0 -5 -5 -15 -10 -23 -8 -12
-10 -11 -10 8 0 12 5 22 10 22 6 0 10 -3 10 -7z m-162 -26 c6 -31 -17 -47 -69
-47 -51 0 -63 8 -53 35 14 37 116 47 122 12z m-194 -3 c9 -3 16 -17 16 -31 0
-23 -3 -25 -40 -20 -69 8 -66 29 7 56 1 1 8 -2 17 -5z m68 -146 c-9 -9 -15 -9
-24 0 -9 9 -7 12 12 12 19 0 21 -3 12 -12z"/>
<path d="M4450 11996 c0 -24 16 -43 27 -32 8 8 -6 56 -17 56 -6 0 -10 -11 -10
-24z"/>
<path d="M4395 13630 c4 -6 11 -8 16 -5 14 9 11 15 -7 15 -8 0 -12 -5 -9 -10z"/>
<path d="M4430 13437 c0 -10 8 -17 18 -17 9 0 13 4 7 8 -5 4 -13 11 -17 16 -5
5 -8 2 -8 -7z"/>
<path d="M4640 13180 c0 -5 5 -10 10 -10 6 0 10 5 10 10 0 6 -4 10 -10 10 -5
0 -10 -4 -10 -10z"/>
<path d="M4954 12814 c3 -9 6 -18 6 -20 0 -2 11 -4 25 -4 29 0 32 8 8 26 -25
19 -47 18 -39 -2z"/>
<path d="M5104 12425 c-8 -21 4 -67 16 -60 13 8 13 75 0 75 -6 0 -13 -7 -16
-15z"/>
<path d="M2450 10784 c-17 -15 -49 -59 -70 -98 -22 -39 -64 -107 -94 -151 -63
-92 -156 -266 -156 -293 0 -12 -15 -25 -41 -36 -47 -21 -245 -153 -389 -260
-52 -38 -137 -96 -189 -128 -52 -33 -128 -90 -169 -128 -41 -38 -107 -86 -146
-106 -109 -57 -210 -132 -338 -251 -234 -217 -312 -348 -406 -679 -53 -186
-71 -289 -70 -409 0 -93 -2 -105 -31 -162 -43 -86 -50 -135 -51 -338 -1 -108
-5 -177 -12 -181 -12 -8 -58 -108 -92 -202 -25 -70 -66 -276 -66 -332 0 -49
27 -101 81 -156 l50 -51 -35 -52 c-59 -87 -85 -191 -126 -510 -23 -173 -20
-225 17 -341 7 -25 16 -72 20 -106 5 -52 1 -73 -30 -160 -32 -90 -37 -117 -52
-306 -10 -113 -14 -211 -11 -217 4 -6 9 -116 10 -243 3 -173 8 -250 20 -300
15 -61 15 -71 0 -110 -61 -166 -77 -263 -63 -383 5 -44 16 -162 24 -263 18
-205 41 -311 105 -477 79 -203 241 -678 300 -880 123 -420 197 -602 315 -775
121 -178 277 -560 278 -681 0 -73 -39 -159 -108 -239 -37 -42 -71 -92 -77
-114 -14 -44 -53 -76 -161 -133 -68 -36 -127 -91 -127 -119 0 -30 28 -81 56
-99 23 -16 52 -21 134 -25 l105 -5 32 -60 c41 -77 88 -120 140 -128 41 -7 64
-22 81 -54 7 -11 37 -19 108 -26 145 -16 4683 -15 5229 1 450 13 679 27 752
45 l48 12 -3 165 c-2 91 -10 269 -18 395 -8 127 -14 264 -14 305 0 82 -16 164
-48 251 -32 85 -101 435 -112 568 -31 357 -60 586 -90 696 -10 39 -21 104 -24
145 -20 239 -74 579 -111 699 -83 268 -74 233 -141 556 -27 131 -47 282 -69
530 -18 203 -32 304 -52 363 -11 34 -16 96 -18 227 -4 232 -37 514 -72 605
-17 45 -29 107 -39 205 -7 77 -25 187 -38 245 -14 58 -30 150 -36 205 -36 337
-53 472 -85 650 -19 110 -42 248 -50 307 -9 59 -27 149 -40 200 -52 206 -98
374 -106 390 -5 9 -14 66 -19 125 -6 59 -14 149 -19 198 -5 50 -7 104 -4 121
3 17 -4 77 -16 132 -16 80 -19 122 -14 199 6 107 -9 277 -33 370 -30 116 -99
267 -174 378 -35 51 -75 92 -153 154 -58 46 -127 96 -154 110 -52 29 -146 93
-178 121 -43 39 -286 186 -390 236 -80 39 -121 65 -148 96 l-39 43 6 -30 c3
-16 12 -61 21 -100 9 -38 18 -86 22 -105 3 -19 12 -39 20 -43 35 -21 64 -160
41 -197 -10 -15 -8 -29 11 -74 27 -65 25 -88 -8 -96 -21 -5 -22 -7 -8 -19 9
-7 21 -10 26 -6 13 7 51 -30 51 -49 0 -8 -6 -17 -12 -20 -10 -5 -10 -7 -1 -12
35 -16 63 -47 58 -63 -3 -11 3 -25 16 -37 12 -10 37 -44 57 -74 19 -30 55 -80
79 -111 28 -37 41 -62 37 -72 -3 -10 -1 -17 5 -17 6 0 11 -8 11 -17 0 -12 -9
-7 -32 18 -18 19 -73 77 -122 129 -49 52 -112 129 -139 170 -47 73 -49 74 -42
35 4 -22 17 -58 27 -79 14 -27 19 -51 15 -77 -5 -36 -2 -39 57 -86 33 -27 96
-73 139 -103 82 -56 84 -59 91 -151 6 -66 0 -77 -25 -48 -9 11 -20 16 -23 10
-4 -5 39 -53 94 -107 55 -53 100 -103 100 -109 0 -7 11 -37 24 -66 39 -90 41
-122 10 -158 -23 -28 -26 -38 -21 -84 6 -55 30 -148 47 -182 28 -57 93 -225
101 -260 11 -53 0 -175 -16 -175 -6 0 -17 19 -24 42 -7 23 -21 58 -32 77 -10
20 -19 39 -19 43 0 5 -8 27 -19 51 -10 23 -26 61 -36 85 -39 93 -21 24 54
-204 43 -131 91 -279 106 -329 16 -53 54 -141 95 -215 127 -231 170 -329 170
-380 0 -49 -16 -110 -30 -110 -4 0 -12 33 -18 73 l-11 72 4 -100 c3 -62 14
-134 29 -190 53 -199 176 -814 192 -955 3 -30 11 -91 19 -135 19 -112 33 -294
31 -400 -1 -119 -19 -122 -60 -10 -16 44 -37 99 -48 123 -10 24 -21 58 -25 75
-3 18 -9 39 -14 48 -4 9 -17 51 -29 93 -11 43 -38 112 -59 154 -21 43 -53 125
-70 184 -17 59 -57 161 -89 225 -32 65 -71 150 -86 188 -16 39 -48 112 -72
163 -24 52 -44 96 -44 98 0 2 -33 66 -73 141 -39 76 -85 167 -101 203 -35 80
-218 448 -251 509 -14 24 -25 55 -25 68 0 12 -4 23 -8 23 -10 0 -54 95 -56
120 -1 9 -10 33 -21 53 -21 39 -13 65 11 33 14 -20 14 -20 14 0 0 45 -12 64
-34 58 -18 -4 -30 6 -66 55 -25 34 -48 61 -52 61 -5 0 -8 6 -8 13 0 7 -11 21
-25 31 -14 10 -25 25 -25 32 0 7 -4 14 -8 16 -15 6 -127 179 -180 280 -28 53
-120 201 -205 330 -84 128 -171 262 -192 298 -74 124 -287 447 -339 514 -16
21 -31 48 -31 58 -1 11 -6 23 -11 26 -40 28 -104 148 -104 194 0 10 61 10 77
0 6 -4 15 -30 18 -57 12 -102 23 -126 54 -118 15 4 19 19 25 89 4 51 2 92 -4
104 -12 23 -89 52 -211 80 -89 21 -97 25 -148 76 -30 30 -55 64 -56 76 -1 15
-10 24 -26 28 -30 7 -30 11 9 94 18 38 31 70 30 71 -2 2 -13 -1 -24 -5 -25
-10 -54 -62 -54 -98 l0 -25 -25 27 c-14 15 -25 31 -25 36 0 5 -11 21 -25 36
-13 14 -23 30 -20 34 3 4 -8 13 -24 20 -16 6 -32 18 -35 25 -5 15 34 45 59 45
8 0 15 6 15 13 -1 17 -55 60 -81 64 -11 2 -30 13 -41 26 -11 12 -16 15 -12 7
5 -8 -8 -3 -28 13 -20 15 -44 27 -52 27 -29 0 -71 24 -121 69 -65 59 -121 131
-109 139 15 12 38 43 28 40 -5 -1 -31 19 -57 45 -27 26 -52 47 -56 47 -7 0
-69 74 -128 155 -35 48 -42 80 -28 125 9 29 -17 26 -55 -6z m555 -644 c3 -6
-1 -7 -9 -4 -18 7 -21 14 -7 14 6 0 13 -4 16 -10z m2135 -470 c0 -15 -5 -12
-26 11 -19 22 -19 22 4 10 12 -6 22 -16 22 -21z m198 -564 c8 -15 15 -41 17
-59 1 -18 20 -68 40 -112 99 -211 180 -413 171 -422 -5 -5 -96 180 -96 196 0
4 -25 63 -56 131 -31 68 -57 129 -58 135 -1 5 -9 21 -18 35 -9 14 -19 44 -22
68 -3 23 -8 47 -12 53 -4 7 -1 10 7 7 8 -2 20 -17 27 -32z m-2668 -171 c17
-20 57 -19 69 3 9 16 12 15 33 -5 12 -13 17 -23 10 -23 -19 0 -14 -27 7 -42
19 -14 66 -88 55 -88 -4 0 1 -11 10 -25 9 -13 16 -42 16 -65 0 -22 4 -40 9
-40 5 0 13 -9 16 -20 3 -11 11 -20 16 -20 6 0 8 4 5 8 -7 11 11 38 20 29 4 -4
9 -37 10 -74 2 -38 5 -93 7 -123 2 -30 -4 -93 -14 -139 -10 -47 -15 -89 -13
-93 3 -5 -2 -21 -12 -36 -10 -15 -17 -30 -16 -34 1 -5 -5 -8 -15 -8 -9 0 -13
3 -10 7 4 3 2 12 -4 20 -11 13 -14 24 -23 108 -3 22 -12 57 -20 77 -19 44 -20
51 -6 43 6 -3 10 -4 10 0 0 8 -23 47 -37 63 -7 7 -16 25 -19 40 -4 15 -15 39
-25 54 -11 14 -19 30 -19 35 0 4 -11 21 -24 36 -14 16 -22 35 -19 44 5 12 1
14 -15 9 -17 -6 -21 -4 -16 8 4 10 1 16 -9 16 -23 0 -45 37 -58 99 -7 31 -16
61 -22 68 -6 9 3 23 30 48 42 39 55 42 73 20z m-170 -59 c0 -3 -4 -8 -10 -11
-5 -3 -10 -1 -10 4 0 6 5 11 10 11 6 0 10 -2 10 -4z m5 -36 c3 -5 1 -10 -4
-10 -6 0 -11 5 -11 10 0 6 2 10 4 10 3 0 8 -4 11 -10z m908 -24 c9 -7 17 -17
17 -23 0 -5 13 -20 30 -33 38 -32 37 -40 -3 -40 -26 0 -36 6 -50 30 -10 17
-16 34 -13 39 3 5 -1 12 -10 15 -8 3 -12 10 -9 16 8 13 16 12 38 -4z m-1334
-36 c11 -22 33 -59 48 -82 15 -24 33 -56 39 -73 6 -16 23 -58 37 -92 14 -35
22 -63 19 -63 -10 0 -92 167 -107 220 -4 14 -10 27 -14 30 -8 6 -51 86 -51 94
0 14 9 3 29 -34z m3651 -82 c0 -5 -7 -8 -15 -8 -8 0 -15 3 -15 8 0 4 -3 18 -6
32 l-6 25 21 -25 c11 -14 21 -28 21 -32z m-2198 -14 c16 -8 32 -23 35 -32 4
-9 19 -29 35 -43 15 -14 28 -30 28 -36 0 -6 9 -13 20 -16 12 -3 20 -14 20 -26
0 -12 5 -21 11 -21 6 0 9 -9 6 -20 -3 -11 3 -30 13 -43 10 -13 15 -28 12 -33
-10 -15 -42 -25 -42 -14 0 15 -37 49 -46 42 -4 -4 -4 -2 -1 4 4 6 -3 22 -14
35 -39 45 -89 140 -89 170 0 28 -15 40 -22 19 -4 -12 -48 16 -48 30 0 12 46 3
82 -16z m2244 -51 c-2 -3 -14 -2 -27 2 -16 6 -18 9 -8 16 13 7 45 -9 35 -18z
m-156 -230 c12 -32 26 -67 31 -78 19 -44 47 -125 43 -125 -4 0 -16 26 -71 150
-23 52 -44 122 -34 116 5 -3 19 -32 31 -63z m-3370 13 c0 -6 -7 -2 -15 8 -8
11 -15 25 -15 30 0 6 7 2 15 -8 8 -11 15 -25 15 -30z m20 -63 c0 -32 -5 -28
-14 10 -4 19 -3 26 4 22 5 -3 10 -18 10 -32z m1474 6 c14 -17 26 -39 26 -50 0
-10 5 -19 10 -19 6 0 10 -7 10 -15 0 -8 7 -15 16 -15 8 0 12 -5 8 -11 -3 -6
-1 -15 6 -19 18 -11 24 -53 8 -48 -27 9 -107 137 -100 161 1 4 -2 7 -7 7 -5 0
-11 9 -14 20 -7 29 7 25 37 -11z m1406 -3751 c0 -6 -6 -5 -15 2 -8 7 -15 14
-15 16 0 2 7 1 15 -2 8 -4 15 -11 15 -16z m37 -20 c-3 -8 -6 -5 -6 6 -1 11 2
17 5 13 3 -3 4 -12 1 -19z m130 -73 c44 -6 113 -54 113 -79 0 -6 9 -29 20 -51
11 -22 20 -40 20 -41 0 -1 -9 -4 -20 -7 -11 -3 -20 -1 -20 5 0 6 -10 8 -23 6
-26 -5 -52 16 -41 34 5 7 3 8 -6 3 -7 -4 -16 -2 -21 6 -4 8 -16 14 -26 14 -11
0 -17 7 -17 17 1 10 -6 20 -16 23 -10 3 -21 13 -24 21 -3 8 -10 13 -15 9 -10
-5 -24 11 -27 32 -1 6 5 14 13 17 9 4 12 2 7 -7 -6 -8 -3 -8 8 1 9 8 15 21 12
30 -2 9 1 7 7 -5 8 -15 25 -23 56 -28z m-3533 -480 c9 -19 41 -106 71 -192 51
-147 68 -222 46 -209 -20 13 -79 134 -90 186 -7 30 -21 84 -31 119 -18 56 -27
131 -16 131 2 0 11 -16 20 -35z m4496 -426 c-7 -11 -14 -19 -16 -16 -7 7 7 37
17 37 6 0 5 -9 -1 -21z m71 -78 c-9 -6 -10 -11 -2 -15 12 -8 6 -26 -10 -26
-10 0 -12 33 -2 43 3 4 11 7 17 7 6 0 5 -4 -3 -9z m0 -109 c4 -18 3 -47 0 -64
-6 -28 -11 -33 -36 -33 -25 0 -31 5 -33 26 -2 15 5 32 18 44 11 10 20 29 20
42 0 35 23 23 31 -15z m3 -155 c7 -7 15 -19 18 -27 7 -21 -19 -70 -37 -70 -8
0 -15 -6 -15 -12 0 -7 -6 -3 -14 8 -19 26 -39 102 -30 115 8 13 60 4 78 -14z
m-5084 -2755 c0 -15 -114 -119 -139 -127 -12 -4 -24 -5 -26 -3 -5 5 147 137
158 138 4 0 7 -4 7 -8z"/>
<path d="M3380 9860 c0 -5 7 -10 15 -10 8 0 15 5 15 10 0 6 -7 10 -15 10 -8 0
-15 -4 -15 -10z"/>
<path d="M3357 9833 c-4 -3 -7 -12 -7 -19 0 -17 59 -29 73 -15 8 8 7 11 -5 11
-8 0 -21 7 -28 15 -14 16 -23 19 -33 8z"/>
<path d="M4348 9754 c-28 -15 -37 -34 -17 -34 6 0 24 8 40 17 51 30 29 46 -23
17z"/>
<path d="M4196 9704 c-4 -9 1 -14 14 -14 23 0 27 15 6 23 -8 3 -17 -1 -20 -9z"/>
<path d="M4750 9660 c12 -16 24 -30 26 -30 3 0 -4 14 -16 30 -12 17 -24 30
-26 30 -3 0 4 -13 16 -30z"/>
<path d="M4176 9671 c-4 -7 -5 -15 -2 -18 9 -9 19 4 14 18 -4 11 -6 11 -12 0z"/>
<path d="M4658 9643 c25 -35 83 -89 61 -57 -23 34 -67 84 -74 84 -4 0 3 -12
13 -27z"/>
<path d="M4215 9651 c-7 -12 12 -24 25 -16 11 7 4 25 -10 25 -5 0 -11 -4 -15
-9z"/>
<path d="M4173 9579 c-29 -8 -33 -13 -30 -41 2 -30 -1 -33 -51 -48 -41 -13
-63 -28 -97 -67 -25 -28 -45 -54 -45 -58 0 -4 9 -19 19 -34 27 -38 171 -292
171 -302 0 -4 20 -37 44 -73 68 -98 105 -199 106 -285 0 -40 22 -107 125 -371
41 -107 75 -198 75 -203 0 -4 18 -37 40 -73 22 -36 40 -68 40 -70 0 -6 101
-177 143 -241 42 -65 54 -74 63 -48 4 8 17 15 30 15 19 0 25 -8 34 -41 13 -46
23 -52 65 -40 l30 9 -32 12 c-26 10 -34 19 -44 61 l-13 50 -40 -3 -41 -3 -12
49 c-7 28 -11 51 -10 52 1 1 18 5 38 9 36 7 36 6 49 -40 12 -43 15 -46 43 -43
39 4 46 25 14 37 -17 7 -30 24 -40 53 -13 39 -17 43 -43 40 -53 -4 -74 6 -74
37 0 15 -9 36 -20 46 -11 10 -20 27 -20 37 0 11 -5 28 -10 38 -7 13 -7 21 0
25 6 4 13 -6 16 -22 3 -15 12 -37 20 -47 12 -17 18 -18 55 -7 33 10 38 15 28
27 -6 8 -22 14 -34 14 -17 0 -27 11 -43 50 -19 45 -24 50 -45 45 -22 -6 -25
-2 -37 40 -11 40 -11 48 1 56 15 10 49 -22 49 -46 0 -14 28 -40 35 -33 3 2 -4
23 -15 46 -11 22 -20 48 -20 56 0 19 -18 30 -50 30 -27 1 -43 36 -16 36 9 0
16 4 16 9 0 15 -29 33 -42 26 -16 -8 22 23 42 35 14 8 12 12 -50 60 -3 3 -12
21 -20 40 -7 19 -28 60 -46 90 -31 53 -38 73 -35 114 1 13 7 17 20 13 11 -3
29 2 41 10 29 21 68 9 76 -23 4 -17 11 -23 21 -20 11 5 13 1 7 -16 -5 -18 -3
-20 12 -13 11 4 43 14 73 23 51 15 54 15 68 -4 13 -17 14 -16 11 21 -3 40 -3
40 -41 37 -39 -4 -41 -2 -51 55 -5 27 -2 33 23 41 17 6 34 6 44 0 13 -7 17 -5
17 6 0 30 -13 46 -43 51 -26 5 -36 16 -54 53 -20 42 -26 47 -55 47 -33 0 -33
0 -30 45 2 31 10 50 24 61 25 19 16 39 -17 39 -13 0 -31 10 -39 22 -18 25 -20
38 -7 38 5 0 25 7 46 16 34 14 36 17 22 32 -8 9 -18 27 -22 40 -9 30 -27 17
-23 -16 3 -24 -1 -28 -39 -36 -53 -11 -73 -3 -73 28 0 19 8 28 35 37 19 7 35
17 35 21 0 11 -4 10 -68 -8 -53 -16 -56 -15 -69 2 -16 22 -17 46 0 63 10 11 5
13 -30 8 -39 -5 -42 -3 -54 26 -10 24 -10 32 -1 35 7 2 12 8 12 14 0 6 -13 8
-35 4 -31 -6 -36 -4 -45 19 -13 35 -14 32 18 49 23 13 24 15 7 16 -11 0 -36
-5 -55 -10 -31 -9 -37 -8 -52 11 -24 28 -23 31 10 51 29 19 16 22 -35 7z m47
-119 c0 -27 -4 -29 -46 -36 -44 -6 -63 2 -64 27 0 9 93 48 102 43 5 -3 8 -18
8 -34z m74 -66 c10 -27 7 -31 -33 -42 -27 -6 -43 -6 -50 1 -18 18 -12 35 17
45 40 15 59 14 66 -4z m69 -84 c3 -11 1 -23 -4 -26 -5 -3 -9 2 -9 10 0 9 -4
16 -10 16 -5 0 -10 5 -10 10 0 19 28 10 33 -10z m65 -87 c-2 -9 -15 -20 -30
-24 -22 -6 -26 -4 -21 10 12 32 57 44 51 14z m-64 -399 c9 -3 16 -14 16 -23 0
-9 5 -22 11 -28 24 -24 73 -122 65 -130 -21 -21 -101 86 -92 123 4 13 0 27 -9
34 -8 7 -15 16 -15 21 0 11 3 11 24 3z m146 -79 c0 -7 -9 -23 -21 -36 -11 -13
-18 -18 -14 -11 3 6 3 12 -2 12 -4 0 -13 12 -20 26 -10 22 -9 26 10 33 24 9
47 -3 47 -24z"/>
<path d="M4150 9450 c0 -5 9 -10 20 -10 11 0 20 5 20 10 0 6 -9 10 -20 10 -11
0 -20 -4 -20 -10z"/>
<path d="M3968 9543 c7 -3 16 -2 19 1 4 3 -2 6 -13 5 -11 0 -14 -3 -6 -6z"/>
<path d="M3840 9522 c0 -5 16 -13 36 -18 31 -7 37 -14 40 -38 5 -44 12 -56 29
-50 12 5 13 10 6 17 -6 6 -11 22 -11 35 0 44 -17 62 -60 62 -22 0 -40 -4 -40
-8z"/>
<path d="M3896 9299 c-35 -42 -40 -66 -21 -119 28 -80 56 -109 70 -72 20 52 9
222 -15 222 -4 0 -20 -14 -34 -31z"/>
<path d="M4548 9233 c7 -3 16 -2 19 1 4 3 -2 6 -13 5 -11 0 -14 -3 -6 -6z"/>
<path d="M4750 8765 c0 -8 7 -15 15 -15 8 0 15 7 15 15 0 8 -7 15 -15 15 -8 0
-15 -7 -15 -15z"/>
<path d="M4815 8760 c-10 -16 7 -31 23 -21 10 6 10 10 -2 20 -10 9 -16 9 -21
1z"/>
<path d="M4577 8685 c-12 -9 -15 -15 -7 -20 6 -4 9 -13 6 -21 -3 -9 2 -14 14
-14 14 0 20 7 20 23 0 36 -12 47 -33 32z"/>
<path d="M4661 8601 l-24 -18 38 6 c21 3 37 11 37 16 -2 17 -26 16 -51 -4z"/>
<path d="M4606 8584 c-4 -10 -1 -14 6 -12 15 5 23 28 10 28 -5 0 -13 -7 -16
-16z"/>
<path d="M4770 7940 c0 -5 5 -10 11 -10 5 0 7 5 4 10 -3 6 -8 10 -11 10 -2 0
-4 -4 -4 -10z"/>
<path d="M4857 7470 c7 -27 17 -32 45 -21 l23 10 -23 0 c-12 1 -25 8 -28 16
-9 22 -23 18 -17 -5z"/>
<path d="M5140 7121 c0 -5 6 -11 14 -14 8 -3 18 -26 21 -51 5 -29 12 -46 21
-46 16 0 19 16 5 24 -5 3 -12 26 -15 51 -6 36 -11 45 -27 45 -10 0 -19 -4 -19
-9z"/>
<path d="M5240 6860 c19 -13 30 -13 30 0 0 6 -10 10 -22 10 -19 0 -20 -2 -8
-10z"/>
</g>
</svg>
